{"title":"Cocktail 2012 Hindi BRRip 720p x264...Hon3y","uid":7714062,"size":950637449,"categoryP":"video","categoryS":"hd___movies","magnet":"?xt=urn:btih:61fa88f86488d8b76230742074404594c17436e2&amp;dn=Cocktail+2012+Hindi+BRRip+720p+x264...Hon3y&amp;tr=udp%3A%2F%2Ftracker.openbittorrent.com%3A80&amp;tr=udp%3A%2F%2Fopen.demonii.com%3A1337&amp;tr=udp%3A%2F%2Ftracker.coppersurfer.tk%3A6969&amp;tr=udp%3A%2F%2Fexodus.desync.com%3A6969","seeders":0,"leechers":1,"uploader":"honey8ee","files":9,"time":1349884564,"description":" &lt;a href=&quot;http://www.imdb.com/title/tt2168910/&quot; rel=&quot;nofollow&quot; target=&quot;_NEW&quot;&gt;http://www.imdb.com/title/tt2168910/&lt;/a&gt;\n &lt;a href=&quot;\nhttp://en.wikipedia.org/wiki/Cocktail_(2012_film)&quot; rel=&quot;nofollow&quot; target=&quot;_NEW&quot;&gt;\nhttp://en.wikipedia.org/wiki/Cocktail_(2012_film)&lt;/a&gt;\n\n\nFormat                                   : Matroska\nFormat version                           : Version 2\nFile size                                : 894 MiB\nDuration                                 : 2h 24mn\nOverall bit rate mode                    : Variable\nOverall bit rate                         : 863 Kbps\n\nVideo\nID                                       : 1\nFormat                                   : AVC\nFormat/Info                              : Advanced Video Codec\nFormat profile                           : &lt;a class=&quot;__cf_email__&quot; href=&quot;/cdn-cgi/l/email-protection&quot; data-cfemail=&quot;b8f0d1dfd0f8f48c9689&quot;&gt;[email&amp;#160;protected]&lt;/a&gt;&lt;script cf-hash='f9e31' type=&quot;text/javascript&quot;&gt;\n/* &lt;![CDATA[ */!function(){try{var t=&quot;currentScript&quot;in document?document.currentScript:function(){for(var t=document.getElementsByTagName(&quot;script&quot;),e=t.length;e--;)if(t[e].getAttribute(&quot;cf-hash&quot;))return t[e]}();if(t&amp;&amp;t.previousSibling){var e,r,n,i,c=t.previousSibling,a=c.getAttribute(&quot;data-cfemail&quot;);if(a){for(e=&quot;&quot;,r=parseInt(a.substr(0,2),16),n=2;a.length-n;n+=2)i=parseInt(a.substr(n,2),16)^r,e+=String.fromCharCode(i);e=document.createTextNode(e),c.parentNode.replaceChild(e,c)}}}catch(u){}}();/* ]]&gt; */&lt;/script&gt;\nFormat settings, CABAC                   : Yes\nFormat settings, ReFrames                : 4 frames\nMuxing mode                              : Header stripping\nCodec ID                                 : V_MPEG4/ISO/AVC\nDuration                                 : 2h 24mn\nBit rate mode                            : Variable\nBit rate                                 : 800 Kbps\nMaximum bit rate                         : 3 500 Kbps\nWidth                                    : 1 280 pixels\nHeight                                   : 544 pixels\nDisplay aspect ratio                     : 2.35:1\nOriginal display aspect ratio            : 2.35:1\nFrame rate                               : 24.000 fps\nColor space                              : YUV\nChroma subsampling                       : 4:2:0\nBit depth                                : 8 bits\nScan type                                : Progressive\nBits/(Pixel*Frame)                       : 0.048\nStream size                              : 810 MiB (91%)\n\n\nAudio\nID                                       : 2\nFormat                                   : AC-3\nBit rate mode                            : Constant\nBit rate                                 : 64.0 Kbps\nChannel(s)                               : 2 channels\nChannel positions                        : Front: L R\nSampling rate                            : 32.0 KHz\nBit depth                                : 16 bits\nCompression mode                         : Lossy\nStream size                              : 66.2 MiB (7%)\n &lt;a href=&quot;\nhttp://www.shotpix.com/images/13415225051136294057.png&quot; rel=&quot;nofollow&quot; target=&quot;_NEW&quot;&gt;\nhttp://www.shotpix.com/images/13415225051136294057.png&lt;/a&gt;\n &lt;a href=&quot;\nhttp://www.shotpix.com/images/46163075193285167780.png&quot; rel=&quot;nofollow&quot; target=&quot;_NEW&quot;&gt;\nhttp://www.shotpix.com/images/46163075193285167780.png&lt;/a&gt;\n &lt;a href=&quot;\nhttp://www.shotpix.com/images/32975178266211470822.png&quot; rel=&quot;nofollow&quot; target=&quot;_NEW&quot;&gt;\nhttp://www.shotpix.com/images/32975178266211470822.png&lt;/a&gt;\n &lt;a href=&quot;\nhttp://www.shotpix.com/images/07921359501890617195.png&quot; rel=&quot;nofollow&quot; target=&quot;_NEW&quot;&gt;\nhttp://www.shotpix.com/images/07921359501890617195.png&lt;/a&gt;\n &lt;a href=&quot;\nhttp://www.shotpix.com/images/71720105756337766941.png&quot; rel=&quot;nofollow&quot; target=&quot;_NEW&quot;&gt;\nhttp://www.shotpix.com/images/71720105756337766941.png&lt;/a&gt;\n &lt;a href=&quot;\nhttp://www.shotpix.com/images/81937449310061057514.png&quot; rel=&quot;nofollow&quot; target=&quot;_NEW&quot;&gt;\nhttp://www.shotpix.com/images/81937449310061057514.png&lt;/a&gt;\n\n                          \n                                      \n                                Check the Sample First","torrent":{"xt":"urn:btih:61fa88f86488d8b76230742074404594c17436e2","amp;dn":"Cocktail+2012+Hindi+BRRip+720p+x264...Hon3y","amp;tr":["udp%3A%2F%2Ftracker.openbittorrent.com%3A80","udp%3A%2F%2Fopen.demonii.com%3A1337","udp%3A%2F%2Ftracker.coppersurfer.tk%3A6969","udp%3A%2F%2Fexodus.desync.com%3A6969"],"infoHash":"61fa88f86488d8b76230742074404594c17436e2","infoHashBuffer":{"type":"Buffer","data":[97,250,136,248,100,136,216,183,98,48,116,32,116,64,69,148,193,116,54,226]},"announce":[],"urlList":[]}}